<?xml version="1.0" encoding="UTF-8"?>
<svg id="Layer_1" data-name="Layer 1" xmlns="http://www.w3.org/2000/svg" viewBox="0 0 155.31 139.98">
  <defs>
    <style>
      .cls-1 {
        fill: #fff;
        stroke: #fff;
        stroke-miterlimit: 10;
        stroke-width: 2px;
      }
    </style>
  </defs>
  <path id="path_1080_360_57_x" data-name="path 1080 360 57 x" class="cls-1" d="M138.98,16.33V1h15.33v15.33h-15.33Z"/>
  <path id="path_1080_384_48_u" data-name="path 1080 384 48 u" class="cls-1" d="M138.98,31.66v-15.33h15.33v15.33h-15.33Z"/>
  <path id="path_1080_408_7_v" data-name="path 1080 408 7 v" class="cls-1" d="M138.98,46.99v-15.33h15.33v15.33h-15.33Z"/>
  <path id="path_1080_432_38_j" data-name="path 1080 432 38 j" class="cls-1" d="M138.98,62.33v-15.33h15.33v15.33h-15.33Z"/>
  <path id="path_1056_432_26_o" data-name="path 1056 432 26 o" class="cls-1" d="M123.65,62.33v-15.33h15.33v15.33h-15.33Z"/>
  <path id="path_1032_432_85_q" data-name="path 1032 432 85 q" class="cls-1" d="M108.32,62.33v-15.33h15.33v15.33h-15.33Z"/>
  <path id="path_1032_408_21_n" data-name="path 1032 408 21 n" class="cls-1" d="M108.32,46.99v-15.33h15.33v15.33h-15.33Z"/>
  <path id="path_1032_384_18_t" data-name="path 1032 384 18 t" class="cls-1" d="M108.32,31.66v-15.33h15.33v15.33h-15.33Z"/>
  <path id="path_1032_360_83_i" data-name="path 1032 360 83 i" class="cls-1" d="M108.32,16.33V1h15.33v15.33h-15.33Z"/>
  <path id="path_1008_432_99_d" data-name="path 1008 432 99 d" class="cls-1" d="M92.99,62.33v-15.33h15.33v15.33h-15.33Z"/>
  <path id="path_984_432_42_y" data-name="path 984 432 42 y" class="cls-1" d="M77.66,62.33v-15.33h15.33v15.33h-15.33Z"/>
  <path id="path_984_408_55_k" data-name="path 984 408 55 k" class="cls-1" d="M77.66,46.99v-15.33h15.33v15.33h-15.33Z"/>
  <path id="path_984_384_56_d" data-name="path 984 384 56 d" class="cls-1" d="M77.66,31.66v-15.33h15.33v15.33h-15.33Z"/>
  <path id="path_984_360_48_e" data-name="path 984 360 48 e" class="cls-1" d="M77.66,16.33V1h15.33v15.33h-15.33Z"/>
  <path id="path_960_432_10_x" data-name="path 960 432 10 x" class="cls-1" d="M62.33,62.33v-15.33h15.33v15.33h-15.33Z"/>
  <path id="path_936_432_16_n" data-name="path 936 432 16 n" class="cls-1" d="M46.99,62.33v-15.33h15.33v15.33h-15.33Z"/>
  <path id="path_936_408_96_v" data-name="path 936 408 96 v" class="cls-1" d="M46.99,46.99v-15.33h15.33v15.33h-15.33Z"/>
  <path id="path_936_384_43_k" data-name="path 936 384 43 k" class="cls-1" d="M46.99,31.66v-15.33h15.33v15.33h-15.33Z"/>
  <path id="path_936_360_57_r" data-name="path 936 360 57 r" class="cls-1" d="M46.99,16.33V1h15.33v15.33h-15.33Z"/>
  <path id="path_912_360_22_w" data-name="path 912 360 22 w" class="cls-1" d="M31.66,16.33V1h15.33v15.33h-15.33Z"/>
  <path id="path_888_360_97_g" data-name="path 888 360 97 g" class="cls-1" d="M16.33,16.33V1h15.33v15.33h-15.33Z"/>
  <path id="path_864_360_62_q" data-name="path 864 360 62 q" class="cls-1" d="M1,16.33V1h15.33v15.33H1Z"/>
  <path id="path_912_432_0_y" data-name="path 912 432 0 y" class="cls-1" d="M31.66,62.33v-15.33h15.33v15.33h-15.33Z"/>
  <path id="path_888_432_53_w" data-name="path 888 432 53 w" class="cls-1" d="M16.33,62.33v-15.33h15.33v15.33h-15.33Z"/>
  <path id="path_864_432_17_f" data-name="path 864 432 17 f" class="cls-1" d="M1,62.33v-15.33h15.33v15.33H1Z"/>
  <path id="path_1080_480_5_j" data-name="path 1080 480 5 j" class="cls-1" d="M138.98,92.99v-15.33h15.33v15.33h-15.33Z"/>
  <path id="path_1080_504_39_s" data-name="path 1080 504 39 s" class="cls-1" d="M138.98,108.32v-15.33h15.33v15.33h-15.33Z"/>
  <path id="path_1080_528_34_d" data-name="path 1080 528 34 d" class="cls-1" d="M138.98,123.65v-15.33h15.33v15.33h-15.33Z"/>
  <path id="path_1080_552_78_j" data-name="path 1080 552 78 j" class="cls-1" d="M138.98,138.98v-15.33h15.33v15.33h-15.33Z"/>
  <path id="path_1056_552_29_t" data-name="path 1056 552 29 t" class="cls-1" d="M123.65,138.98v-15.33h15.33v15.33h-15.33Z"/>
  <path id="path_1032_552_39_f" data-name="path 1032 552 39 f" class="cls-1" d="M108.32,138.98v-15.33h15.33v15.33h-15.33Z"/>
  <path id="path_1008_480_73_n" data-name="path 1008 480 73 n" class="cls-1" d="M92.99,92.99v-15.33h15.33v15.33h-15.33Z"/>
  <path id="path_984_480_58_y" data-name="path 984 480 58 y" class="cls-1" d="M77.66,92.99v-15.33h15.33v15.33h-15.33Z"/>
  <path id="path_960_480_85_o" data-name="path 960 480 85 o" class="cls-1" d="M62.33,92.99v-15.33h15.33v15.33h-15.33Z"/>
  <path id="path_888_552_42_s" data-name="path 888 552 42 s" class="cls-1" d="M16.33,138.98v-15.33h15.33v15.33h-15.33Z"/>
  <path id="path_864_552_77_o" data-name="path 864 552 77 o" class="cls-1" d="M1,138.98v-15.33h15.33v15.33H1Z"/>
  <path id="path_936_480_55_i" data-name="path 936 480 55 i" class="cls-1" d="M46.99,92.99v-15.33h15.33v15.33h-15.33Z"/>
  <path id="path_912_480_29_z" data-name="path 912 480 29 z" class="cls-1" d="M31.66,92.99v-15.33h15.33v15.33h-15.33Z"/>
  <path id="path_888_480_47_k" data-name="path 888 480 47 k" class="cls-1" d="M16.33,92.99v-15.33h15.33v15.33h-15.33Z"/>
  <path id="path_888_504_27_a" data-name="path 888 504 27 a" class="cls-1" d="M16.33,108.32v-15.33h15.33v15.33h-15.33Z"/>
  <path id="path_888_528_75_b" data-name="path 888 528 75 b" class="cls-1" d="M16.33,123.65v-15.33h15.33v15.33h-15.33Z"/>
  <path id="path_1032_504_1_b" data-name="path 1032 504 1 b" class="cls-1" d="M108.32,108.32v-15.33h15.33v15.33h-15.33Z"/>
  <path id="path_1032_480_70_a" data-name="path 1032 480 70 a" class="cls-1" d="M108.32,92.99v-15.33h15.33v15.33h-15.33Z"/>
  <path id="path_1032_528_43_a" data-name="path 1032 528 43 a" class="cls-1" d="M108.32,123.65v-15.33h15.33v15.33h-15.33Z"/>
  <path id="path_984_552_22_u" data-name="path 984 552 22 u" class="cls-1" d="M77.66,138.98v-15.33h15.33v15.33h-15.33Z"/>
  <path id="path_936_552_73_g" data-name="path 936 552 73 g" class="cls-1" d="M46.99,138.98v-15.33h15.33v15.33h-15.33Z"/>
</svg>